<svg width="22" height="22" viewBox="0 0 22 22" fill="none" xmlns="http://www.w3.org/2000/svg">
<g id="circum:search">
<path id="Vector" d="M18.3618 19.0577C18.7835 19.4793 19.4343 18.8285 19.0126 18.416L15.5751 14.9693C16.7809 13.6351 17.4475 11.9002 17.4451 10.1018C17.4451 6.07768 14.1726 2.80518 10.1485 2.80518C6.12431 2.80518 2.85181 6.07768 2.85181 10.1018C2.85181 14.126 6.12431 17.3985 10.1485 17.3985C11.9635 17.3985 13.641 16.7293 14.9243 15.6202L18.3618 19.0577ZM3.76756 10.1018C3.76756 6.58184 6.63672 3.72184 10.1476 3.72184C13.6676 3.72184 16.5276 6.58184 16.5276 10.1018C16.5276 13.6218 13.6676 16.4818 10.1476 16.4818C6.63672 16.4818 3.76756 13.6218 3.76756 10.1018Z" fill="#01390C"/>
</g>
</svg>
