<svg width="16" height="9" viewBox="0 0 16 9" fill="none" xmlns="http://www.w3.org/2000/svg">
<path d="M14.9142 2.34689L8.66422 7.97189C8.57713 8.05055 8.47363 8.11296 8.35968 8.15555C8.24572 8.19814 8.12355 8.22006 8.00016 8.22006C7.87677 8.22006 7.7546 8.19814 7.64064 8.15555C7.52669 8.11296 7.4232 8.05055 7.3361 7.97189L1.0861 2.34689C0.909979 2.18838 0.811035 1.9734 0.811035 1.74924C0.811035 1.52507 0.909979 1.31009 1.0861 1.15158C1.26222 0.993072 1.50109 0.904024 1.75016 0.904024C1.99923 0.904024 2.2381 0.993072 2.41422 1.15158L8.00094 6.17963L13.5877 1.15088C13.7638 0.99237 14.0027 0.90332 14.2517 0.90332C14.5008 0.90332 14.7397 0.99237 14.9158 1.15088C15.0919 1.30939 15.1909 1.52437 15.1909 1.74853C15.1909 1.9727 15.0919 2.18768 14.9158 2.34619L14.9142 2.34689Z" fill="white"/>
</svg>
