<svg width="12" height="10" viewBox="0 0 12 10" fill="none" xmlns="http://www.w3.org/2000/svg">
<path d="M11.2052 1.92646C10.7862 2.11269 10.3439 2.22909 9.87827 2.29893C10.3439 2.01958 10.7163 1.57728 10.8793 1.04186C10.437 1.29793 9.94811 1.48416 9.41269 1.60056C8.99367 1.15825 8.38842 0.878906 7.7366 0.878906C6.47954 0.878906 5.45526 1.90318 5.45526 3.16025C5.45526 3.34648 5.47854 3.50943 5.5251 3.67239C3.6395 3.57927 1.94013 2.67139 0.799457 1.27465C0.613225 1.62383 0.49683 1.9963 0.49683 2.41532C0.49683 3.20681 0.892573 3.90518 1.52111 4.3242C1.14864 4.30092 0.799457 4.20781 0.473551 4.04485V4.06813C0.473551 5.18552 1.26504 6.11668 2.31259 6.3262C2.12636 6.37275 1.91685 6.39603 1.70734 6.39603C1.56766 6.39603 1.40471 6.37275 1.26504 6.34947C1.56766 7.25736 2.40571 7.93245 3.40671 7.93245C2.61522 8.5377 1.6375 8.91017 0.566667 8.91017C0.380435 8.91017 0.194203 8.91017 0.03125 8.88689C1.05553 9.5387 2.24276 9.91117 3.54638 9.91117C7.75988 9.91117 10.0645 6.41931 10.0645 3.39304C10.0645 3.29992 10.0645 3.18353 10.0645 3.09041C10.5068 2.78779 10.9025 2.39204 11.2052 1.92646Z" fill="#01390C"/>
</svg>
