<svg width="14" height="14" viewBox="0 0 14 14" fill="none" xmlns="http://www.w3.org/2000/svg">
<path d="M7.00076 1.39057C8.80947 1.39057 9.02366 1.39734 9.73818 1.42992C10.1678 1.43518 10.5933 1.51406 10.9962 1.66315C11.2884 1.77584 11.5538 1.94847 11.7753 2.16992C11.9967 2.39138 12.1694 2.65675 12.282 2.94895C12.4311 3.35189 12.51 3.77741 12.5153 4.20702C12.5475 4.92153 12.5546 5.13573 12.5546 6.94444C12.5546 8.75315 12.5479 8.96734 12.5153 9.68186C12.51 10.1115 12.4311 10.537 12.282 10.9399C12.1694 11.2321 11.9967 11.4975 11.7753 11.719C11.5538 11.9404 11.2884 12.113 10.9962 12.2257C10.5933 12.3748 10.1678 12.4537 9.73818 12.459C9.02398 12.4912 8.80979 12.4983 7.00076 12.4983C5.19172 12.4983 4.97753 12.4915 4.26334 12.459C3.83373 12.4537 3.40821 12.3748 3.00527 12.2257C2.71307 12.113 2.44769 11.9404 2.22624 11.719C2.00479 11.4975 1.83216 11.2321 1.71947 10.9399C1.57038 10.537 1.4915 10.1115 1.48624 9.68186C1.45398 8.96734 1.44689 8.75315 1.44689 6.94444C1.44689 5.13573 1.45366 4.92153 1.48624 4.20702C1.4915 3.77741 1.57038 3.35189 1.71947 2.94895C1.83216 2.65675 2.00479 2.39138 2.22624 2.16992C2.44769 1.94847 2.71307 1.77584 3.00527 1.66315C3.40821 1.51406 3.83373 1.43518 4.26334 1.42992C4.97785 1.39766 5.19205 1.39057 7.00076 1.39057ZM7.00076 0.169922C5.16205 0.169922 4.93043 0.177664 4.20785 0.210567C3.64561 0.22175 3.08934 0.328206 2.56269 0.525406C2.11092 0.69562 1.70172 0.962362 1.36366 1.30702C1.01869 1.6452 0.751722 2.05463 0.581401 2.5067C0.384201 3.03334 0.277746 3.58961 0.266563 4.15186C0.234304 4.87379 0.226562 5.10541 0.226562 6.94411C0.226562 8.78282 0.234304 9.01444 0.267208 9.73702C0.278391 10.2993 0.384847 10.8555 0.582046 11.3822C0.752178 11.8342 1.01892 12.2436 1.36366 12.5819C1.70191 12.9266 2.11133 13.1933 2.56334 13.3635C3.08998 13.5607 3.64626 13.6671 4.2085 13.6783C4.93108 13.7106 5.16172 13.719 7.0014 13.719C8.84108 13.719 9.07172 13.7112 9.7943 13.6783C10.3565 13.6671 10.9128 13.5607 11.4395 13.3635C11.8893 13.1891 12.2978 12.9227 12.6389 12.5815C12.98 12.2402 13.246 11.8315 13.4201 11.3815C13.6173 10.8549 13.7238 10.2986 13.735 9.73637C13.7672 9.01444 13.775 8.78282 13.775 6.94411C13.775 5.10541 13.7672 4.87379 13.7343 4.15121C13.7231 3.58897 13.6167 3.03269 13.4195 2.50605C13.2493 2.05404 12.9826 1.64462 12.6379 1.30637C12.2996 0.961638 11.8902 0.694892 11.4382 0.524761C10.9115 0.327561 10.3553 0.221105 9.79301 0.209922C9.07108 0.177664 8.83947 0.169922 7.00076 0.169922Z" fill="#01390C"/>
<path d="M7.00215 3.4668C6.31413 3.4668 5.64155 3.67082 5.06948 4.05307C4.49741 4.43531 4.05154 4.97861 3.78824 5.61426C3.52494 6.24991 3.45605 6.94937 3.59028 7.62417C3.72451 8.29897 4.05582 8.91882 4.54233 9.40532C5.02884 9.89183 5.64868 10.2231 6.32349 10.3574C6.99829 10.4916 7.69774 10.4227 8.33339 10.1594C8.96904 9.89612 9.51234 9.45024 9.89459 8.87817C10.2768 8.3061 10.4809 7.63353 10.4809 6.94551C10.4809 6.0229 10.1144 5.13807 9.46197 4.48569C8.80958 3.8333 7.92476 3.4668 7.00215 3.4668ZM7.00215 9.20357C6.55555 9.20357 6.11897 9.07114 5.74764 8.82302C5.3763 8.5749 5.08688 8.22224 4.91597 7.80963C4.74506 7.39702 4.70034 6.943 4.78747 6.50498C4.8746 6.06696 5.08966 5.66461 5.40546 5.34881C5.72125 5.03302 6.1236 4.81796 6.56162 4.73083C6.99964 4.6437 7.45367 4.68842 7.86627 4.85933C8.27888 5.03023 8.63154 5.31966 8.87966 5.69099C9.12778 6.06233 9.26021 6.4989 9.26021 6.94551C9.26021 7.54438 9.02231 8.11873 8.59884 8.5422C8.17537 8.96567 7.60102 9.20357 7.00215 9.20357Z" fill="#01390C"/>
<path d="M10.6176 4.14143C11.0665 4.14143 11.4305 3.77748 11.4305 3.32853C11.4305 2.87957 11.0665 2.51562 10.6176 2.51562C10.1686 2.51562 9.80469 2.87957 9.80469 3.32853C9.80469 3.77748 10.1686 4.14143 10.6176 4.14143Z" fill="#01390C"/>
</svg>
