<svg width="130" height="33" viewBox="0 0 130 33" fill="none" xmlns="http://www.w3.org/2000/svg">
<path d="M17.3493 14.5913C16.4574 13.4284 15.2998 12.4962 13.9736 11.8725C12.6474 11.2488 11.1911 10.9518 9.72652 11.0064C8.29119 11.0172 6.87667 11.3507 5.58765 11.9821C4.29864 12.6135 3.16811 13.5267 2.27977 14.6542C0.776933 16.6452 -0.0237245 19.078 0.00298729 21.5724C-0.0636273 24.5105 0.985962 27.3647 2.9402 29.5598C3.84926 30.5343 4.94284 31.3186 6.15748 31.8671C7.37213 32.4155 8.68364 32.7173 10.0158 32.7548C11.3492 32.7548 15.6763 32.1258 17.6638 29.6101V29.3271C16.1622 30.5112 14.3231 31.1873 12.4121 31.2579C9.4435 31.2579 4.98427 30.1447 3.56914 22.1384H19.1104C19.1104 22.1384 19.928 17.8554 17.3493 14.5913ZM15.1229 21.1699H3.59429C3.59429 19.5975 3.91505 11.9498 9.72652 11.9498C15.538 11.9498 15.1229 21.1699 15.1229 21.1699Z" fill="#01390C"/>
<path d="M54.8904 14.5914C53.9988 13.4282 52.8413 12.4956 51.515 11.8718C50.1887 11.2481 48.7322 10.9514 47.2676 11.0065C45.8278 11.0126 44.4081 11.3439 43.1143 11.9755C41.8205 12.6072 40.686 13.5229 39.7957 14.6543C38.2898 16.6437 37.4888 19.0776 37.5189 21.5725C37.4493 24.51 38.4967 27.3646 40.4498 29.5599C41.3588 30.5345 42.4524 31.3187 43.6671 31.8672C44.8817 32.4157 46.1932 32.7174 47.5254 32.7549C48.8588 32.7549 53.1545 32.126 55.1734 29.6102V29.3272C53.6746 30.512 51.8372 31.1883 49.928 31.258C46.9531 31.258 42.4938 30.1448 41.0787 22.1386H56.6263C56.6263 22.1386 57.4565 17.8555 54.8904 14.5914ZM52.6639 21.17H41.1353C41.1353 19.5977 41.4561 11.9499 47.2676 11.9499C53.079 11.9499 52.6513 21.17 52.6513 21.17H52.6639Z" fill="#01390C"/>
<path d="M115.73 14.5916C114.839 13.4276 113.682 12.4945 112.355 11.8707C111.029 11.2468 109.572 10.9506 108.107 11.0067C106.673 11.0176 105.259 11.3511 103.971 11.9826C102.683 12.614 101.554 13.5272 100.667 14.6545C99.1637 16.6455 98.363 19.0784 98.3897 21.5727C98.3232 24.5097 99.3703 27.3632 101.321 29.5602C102.23 30.5347 103.323 31.319 104.538 31.8674C105.753 32.4159 107.064 32.7176 108.396 32.7551C109.73 32.7551 114.057 32.1262 116.051 29.6105V29.3275C114.549 30.5115 112.71 31.1877 110.799 31.2583C107.83 31.2583 103.371 30.1451 101.95 22.1388H117.497C117.497 22.1388 118.315 17.8558 115.73 14.5916ZM113.51 21.1702H101.981C101.981 19.5979 102.302 11.9501 108.107 11.9501C113.912 11.9501 113.51 21.1702 113.51 21.1702Z" fill="#01390C"/>
<path d="M38.2678 11.0059L30.0223 32.7731H28.1669L18.5 11.0059H22.324L29.9971 28.5341L36.7332 11.0059H38.2678Z" fill="#01390C"/>
<path d="M123.819 0H120.152V32.7735H123.819V0Z" fill="#01390C"/>
<path d="M73.6224 13.4655L71.1444 16.2454C71.1444 16.2454 69.484 12.956 66.9304 12.956C63.2259 12.956 62.7605 19.7548 62.7605 19.7548V32.7736H59.0938V11.0064H62.7605V16.0378C64.1631 12.3712 66.27 10.9561 69.1192 10.9561C71.9683 10.9561 73.6224 13.4655 73.6224 13.4655Z" fill="#01390C"/>
<path d="M130.003 0H126.336V32.7735H130.003V0Z" fill="#01390C"/>
<path d="M72.1367 18.704L78.4262 32.7731H80.2438L84.4704 21.465L89.5334 32.7731H91.3133L99.5274 11.0059H98.0556L91.3825 28.5216L83.5961 11.0059H79.8224L83.7471 19.6725L80.2627 28.5153L74.6273 15.9178L72.1367 18.704Z" fill="#01390C"/>
</svg>
