<svg width="263" height="68" viewBox="0 0 263 68" fill="none" xmlns="http://www.w3.org/2000/svg">
<path d="M35.0991 30.4622C33.2945 28.1097 30.9527 26.2237 28.2697 24.9619C25.5866 23.7001 22.6404 23.0992 19.6775 23.2097C16.7761 23.2304 13.9163 23.9019 11.309 25.1748C8.70163 26.4476 6.41311 28.2892 4.61215 30.564C1.57695 34.5947 -0.0422524 39.5148 0.00604353 44.5601C-0.128723 50.5042 1.99468 56.2785 5.94824 60.7193C7.78735 62.6909 9.99974 64.2775 12.4571 65.3871C14.9144 66.4967 17.5677 67.107 20.2628 67.1829C22.9603 67.1829 31.7145 65.8469 35.7353 60.821V60.2485C32.6945 62.6371 28.9748 64.0002 25.1107 64.142C19.1049 64.142 10.0836 61.9026 7.22065 45.7053H38.6618C38.6618 45.7053 40.3159 37.0658 35.0991 30.4622ZM30.5948 43.7713H7.27152C7.27152 40.5903 7.92045 25.1182 19.6775 25.1182C31.4345 25.1182 30.5948 43.7713 30.5948 43.7713Z" fill="white"/>
<path d="M111.049 30.462C109.245 28.1087 106.903 26.222 104.22 24.9602C101.537 23.6983 98.5904 23.0979 95.6273 23.2094C92.717 23.2207 89.8467 23.8878 87.2296 25.161C84.6126 26.4342 82.3162 28.2809 80.5111 30.5638C77.4691 34.5908 75.8491 39.5133 75.905 44.5599C75.7642 50.5027 77.8832 56.2776 81.8344 60.719C83.6735 62.6906 85.886 64.2772 88.3433 65.3868C90.8006 66.4964 93.4538 67.1068 96.149 67.1826C98.8465 67.1826 107.537 65.8466 111.622 60.8208V60.2483C108.586 62.6382 104.87 64.0016 101.01 64.1417C94.9911 64.1417 85.9697 61.9024 83.1068 45.705H114.561C114.561 45.705 116.24 37.0656 111.049 30.462ZM106.545 43.771H83.2214C83.2214 40.5901 83.8703 25.118 95.6273 25.118C107.384 25.118 106.519 43.771 106.519 43.771H106.545Z" fill="white"/>
<path d="M234.129 30.4629C232.327 28.1081 229.986 26.2203 227.302 24.9583C224.618 23.6962 221.671 23.0968 218.708 23.2104C215.808 23.2312 212.95 23.9028 210.345 25.1757C207.74 26.4486 205.454 28.2902 203.655 30.5647C200.62 34.5954 199.001 39.5155 199.049 44.5608C198.915 50.5026 201.033 56.2753 204.978 60.72C206.818 62.6916 209.03 64.2782 211.487 65.3878C213.945 66.4974 216.598 67.1078 219.293 67.1836C221.991 67.1836 230.745 65.8476 234.778 60.8217V60.2492C231.737 62.6378 228.018 64.0009 224.154 64.1427C218.148 64.1427 209.127 61.9033 206.251 45.706H237.705C237.705 45.706 239.359 37.0665 234.129 30.4629ZM229.638 43.772H206.314C206.314 40.591 206.963 25.1189 218.708 25.1189C230.452 25.1189 229.638 43.772 229.638 43.772Z" fill="white"/>
<path d="M77.4215 23.1973L60.7402 67.2468H56.9866L37.4297 23.1973H45.1659L60.6893 58.6583L74.3168 23.1973H77.4215Z" fill="white"/>
<path d="M250.492 0.943359H243.074V67.2467H250.492V0.943359Z" fill="white"/>
<path d="M148.94 28.1847L143.926 33.8085C143.926 33.8085 140.567 27.154 135.401 27.154C127.907 27.154 126.965 40.9084 126.965 40.9084V67.2466H119.547V23.2096H126.965V33.3886C129.803 25.9834 134.065 23.1079 139.829 23.1079C145.593 23.1079 148.94 28.1847 148.94 28.1847Z" fill="white"/>
<path d="M263 0.943359H255.582V67.2467H263V0.943359Z" fill="white"/>
<path d="M145.938 38.7838L158.662 67.2468H162.339L170.889 44.3696L181.132 67.2468H184.733L201.351 23.1973H198.373L184.873 58.6456L169.121 23.1973H161.486L169.426 40.7433L162.377 58.6329L150.976 33.1472L145.938 38.7838Z" fill="white"/>
</svg>
