<svg width="1440" height="11059" viewBox="0 0 1440 11059" fill="none" xmlns="http://www.w3.org/2000/svg">
<g clip-path="url(#clip0_2023_3)">
<rect width="1440" height="10708" transform="translate(2.00085)" fill="#D6FFDD"/>
<g filter="url(#filter0_bf_2023_3)">
<path fill-rule="evenodd" clip-rule="evenodd" d="M1215.59 13704.6C976.178 13797.1 760.034 13146.1 645.078 11802.6C552.632 10722.1 542.468 9390.59 600.646 8092.26C600.646 8092.26 411.769 343.818 1157.46 6823.11C1903.16 13302.4 1484.52 3162.3 1484.52 3162.3C1730.18 3034.51 1953.32 3684.28 2070.79 5057.23C2208.35 6664.93 2163.73 8828.44 1982.85 10611.5L1599.22 12158L1215.59 13704.6Z" fill="url(#paint0_linear_2023_3)"/>
<path fill-rule="evenodd" clip-rule="evenodd" d="M1215.59 13704.6C976.178 13797.1 760.034 13146.1 645.078 11802.6C552.632 10722.1 542.468 9390.59 600.646 8092.26C600.646 8092.26 411.769 343.818 1157.46 6823.11C1903.16 13302.4 1484.52 3162.3 1484.52 3162.3C1730.18 3034.51 1953.32 3684.28 2070.79 5057.23C2208.35 6664.93 2163.73 8828.44 1982.85 10611.5L1599.22 12158L1215.59 13704.6Z" fill="url(#paint1_radial_2023_3)"/>
<path d="M1009.98 4363.23C805.681 5329.83 663.403 6691.75 600.646 8092.26C600.646 8092.26 411.769 343.818 1157.46 6823.11C1903.16 13302.4 1484.52 3162.3 1484.52 3162.3C1328.32 3243.56 1163.01 3639.21 1009.98 4363.23Z" fill="url(#paint2_linear_2023_3)"/>
<path d="M1009.98 4363.23C805.681 5329.83 663.403 6691.75 600.646 8092.26C600.646 8092.26 411.769 343.818 1157.46 6823.11C1903.16 13302.4 1484.52 3162.3 1484.52 3162.3C1328.32 3243.56 1163.01 3639.21 1009.98 4363.23Z" fill="url(#paint3_radial_2023_3)"/>
<path d="M1215.59 13704.6C1376.4 13642.5 1547.7 13245 1705.88 12496.6C1817.77 11967.2 1911.05 11319.3 1982.85 10611.5L1599.22 12158L1215.59 13704.6Z" fill="url(#paint4_linear_2023_3)"/>
<path d="M1215.59 13704.6C1376.4 13642.5 1547.7 13245 1705.88 12496.6C1817.77 11967.2 1911.05 11319.3 1982.85 10611.5L1599.22 12158L1215.59 13704.6Z" fill="url(#paint5_radial_2023_3)"/>
</g>
<g filter="url(#filter1_bf_2023_3)">
<path d="M1587.41 10481.5C1679.17 9621.67 1754.23 12717.3 1694.14 11351.5C1659.76 10569.8 1272.53 9236.94 1136.77 5943.27C1030.36 5197.12 1165.53 7039.68 1089.2 6564.44C910.723 5453.25 933.98 5626.97 736.492 5389.11C539.003 5151.25 369.244 5447.22 262.709 6215.14C156.173 6983.06 121.109 8163.47 164.848 9509.57C208.587 10855.7 327.743 12263.2 497.401 13438C667.06 14612.7 874.086 15463.7 1075.19 15812.9C1276.3 16162.2 1455.92 15982.7 1576.5 15312L937.827 10648.1L1587.41 10481.5Z" fill="url(#paint6_radial_2023_3)"/>
</g>
<g style="mix-blend-mode:screen" filter="url(#filter2_bf_2023_3)">
<path d="M884.624 4241.16C680.031 1149.02 -373.89 4831.9 411.049 745.651C470.305 -494.602 721.017 -1284.49 1122.52 -223.772C1524.02 836.943 1801.46 2702.25 1742.21 3942.5C1557.16 2954.76 1286.13 5301.87 884.624 4241.16Z" fill="url(#paint7_linear_2023_3)"/>
<path d="M884.624 4241.16C680.031 1149.02 -373.89 4831.9 411.049 745.651C470.305 -494.602 721.017 -1284.49 1122.52 -223.772C1524.02 836.943 1801.46 2702.25 1742.21 3942.5C1557.16 2954.76 1286.13 5301.87 884.624 4241.16Z" fill="url(#paint8_radial_2023_3)"/>
</g>
</g>
<g style="mix-blend-mode:color-dodge" opacity="0.4" filter="url(#filter3_bf_2023_3)">
<path d="M1027.39 2961.36C1027.39 2291.1 904.869 1646.8 685.445 1163.15C466.021 679.5 166.682 393.958 -149.985 366.225C-466.652 338.491 -776.13 570.712 -1013.71 1014.34C-1251.3 1457.96 -1398.59 2078.64 -1424.79 2746.6C-1451 3414.56 -1354.09 4078.08 -1154.33 4598.44C-954.566 5118.8 -667.416 5455.71 -352.918 5538.72C-38.4192 5621.73 279.079 5444.42 533.193 5043.86C787.307 4643.3 958.362 4050.5 1010.6 3389.41L-200.805 2961.36L1027.39 2961.36Z" fill="url(#paint9_linear_2023_3)"/>
</g>
<g style="mix-blend-mode:screen" filter="url(#filter4_bf_2023_3)">
<path d="M380.992 3614.12C1220.54 5623.22 1377.1 3406.29 1546.01 5918.18C1756.8 6704.86 1701.23 7176.99 1117.94 6442.85C534.653 5708.72 -109.076 4475.85 -319.867 3689.17C54.9928 4347.18 -202.297 2879.98 380.992 3614.12Z" fill="url(#paint10_linear_2023_3)"/>
<path d="M380.992 3614.12C1220.54 5623.22 1377.1 3406.29 1546.01 5918.18C1756.8 6704.86 1701.23 7176.99 1117.94 6442.85C534.653 5708.72 -109.076 4475.85 -319.867 3689.17C54.9928 4347.18 -202.297 2879.98 380.992 3614.12Z" fill="url(#paint11_radial_2023_3)"/>
</g>
<g style="mix-blend-mode:screen" filter="url(#filter5_bf_2023_3)">
<path d="M-17.3886 5186.99C405.456 6181.01 520.65 5155.5 576.165 6340.26C678.374 6721.7 641.901 6938.64 338.845 6557.21C35.7893 6175.78 -292.742 5557.34 -394.951 5175.89C-202.798 5508.03 -320.444 4805.56 -17.3886 5186.99Z" fill="url(#paint12_linear_2023_3)"/>
<path d="M-17.3886 5186.99C405.456 6181.01 520.65 5155.5 576.165 6340.26C678.374 6721.7 641.901 6938.64 338.845 6557.21C35.7893 6175.78 -292.742 5557.34 -394.951 5175.89C-202.798 5508.03 -320.444 4805.56 -17.3886 5186.99Z" fill="url(#paint13_radial_2023_3)"/>
</g>
<g style="mix-blend-mode:screen" filter="url(#filter6_bf_2023_3)">
<path d="M-89.3886 6935.99C333.456 7930.01 448.65 6904.5 504.165 8089.26C606.374 8470.7 569.901 8687.64 266.845 8306.21C-36.2107 7924.78 -364.742 7306.34 -466.951 6924.89C-274.798 7257.03 -392.444 6554.56 -89.3886 6935.99Z" fill="url(#paint14_linear_2023_3)"/>
<path d="M-89.3886 6935.99C333.456 7930.01 448.65 6904.5 504.165 8089.26C606.374 8470.7 569.901 8687.64 266.845 8306.21C-36.2107 7924.78 -364.742 7306.34 -466.951 6924.89C-274.798 7257.03 -392.444 6554.56 -89.3886 6935.99Z" fill="url(#paint15_radial_2023_3)"/>
</g>
<g style="mix-blend-mode:screen" filter="url(#filter7_bf_2023_3)">
<path d="M-144.389 8200.99C278.456 9195.01 393.65 8169.5 449.165 9354.26C551.374 9735.7 514.901 9952.64 211.845 9571.21C-91.2107 9189.78 -419.742 8571.34 -521.951 8189.89C-329.798 8522.03 -447.444 7819.56 -144.389 8200.99Z" fill="url(#paint16_linear_2023_3)"/>
<path d="M-144.389 8200.99C278.456 9195.01 393.65 8169.5 449.165 9354.26C551.374 9735.7 514.901 9952.64 211.845 9571.21C-91.2107 9189.78 -419.742 8571.34 -521.951 8189.89C-329.798 8522.03 -447.444 7819.56 -144.389 8200.99Z" fill="url(#paint17_radial_2023_3)"/>
</g>
<g style="mix-blend-mode:screen" filter="url(#filter8_bf_2023_3)">
<path d="M-128.389 9672.99C294.456 10667 409.65 9641.5 465.165 10826.3C567.374 11207.7 530.901 11424.6 227.845 11043.2C-75.2107 10661.8 -403.742 10043.3 -505.951 9661.89C-313.798 9994.03 -431.444 9291.56 -128.389 9672.99Z" fill="url(#paint18_linear_2023_3)"/>
<path d="M-128.389 9672.99C294.456 10667 409.65 9641.5 465.165 10826.3C567.374 11207.7 530.901 11424.6 227.845 11043.2C-75.2107 10661.8 -403.742 10043.3 -505.951 9661.89C-313.798 9994.03 -431.444 9291.56 -128.389 9672.99Z" fill="url(#paint19_radial_2023_3)"/>
</g>
<defs>
<filter id="filter0_bf_2023_3" x="426.781" y="3008.79" width="1862.31" height="10842.2" filterUnits="userSpaceOnUse" color-interpolation-filters="sRGB">
<feFlood flood-opacity="0" result="BackgroundImageFix"/>
<feGaussianBlur in="BackgroundImageFix" stdDeviation="68.8657"/>
<feComposite in2="SourceAlpha" operator="in" result="effect1_backgroundBlur_2023_3"/>
<feBlend mode="normal" in="SourceGraphic" in2="effect1_backgroundBlur_2023_3" result="shape"/>
<feGaussianBlur stdDeviation="68.8657" result="effect2_foregroundBlur_2023_3"/>
</filter>
<filter id="filter1_bf_2023_3" x="8.74933" y="5171.19" width="1844.7" height="10953.9" filterUnits="userSpaceOnUse" color-interpolation-filters="sRGB">
<feFlood flood-opacity="0" result="BackgroundImageFix"/>
<feGaussianBlur in="BackgroundImageFix" stdDeviation="68.8658"/>
<feComposite in2="SourceAlpha" operator="in" result="effect1_backgroundBlur_2023_3"/>
<feBlend mode="normal" in="SourceGraphic" in2="effect1_backgroundBlur_2023_3" result="shape"/>
<feGaussianBlur stdDeviation="68.8658" result="effect2_foregroundBlur_2023_3"/>
</filter>
<filter id="filter2_bf_2023_3" x="-89.6024" y="-933.645" width="2053.78" height="5670.62" filterUnits="userSpaceOnUse" color-interpolation-filters="sRGB">
<feFlood flood-opacity="0" result="BackgroundImageFix"/>
<feGaussianBlur in="BackgroundImageFix" stdDeviation="68.8657"/>
<feComposite in2="SourceAlpha" operator="in" result="effect1_backgroundBlur_2023_3"/>
<feBlend mode="normal" in="SourceGraphic" in2="effect1_backgroundBlur_2023_3" result="shape"/>
<feGaussianBlur stdDeviation="107" result="effect2_foregroundBlur_2023_3"/>
</filter>
<filter id="filter3_bf_2023_3" x="-1566.73" y="226.267" width="2731.85" height="5470.19" filterUnits="userSpaceOnUse" color-interpolation-filters="sRGB">
<feFlood flood-opacity="0" result="BackgroundImageFix"/>
<feGaussianBlur in="BackgroundImageFix" stdDeviation="68.8657"/>
<feComposite in2="SourceAlpha" operator="in" result="effect1_backgroundBlur_2023_3"/>
<feBlend mode="normal" in="SourceGraphic" in2="effect1_backgroundBlur_2023_3" result="shape"/>
<feGaussianBlur stdDeviation="68.8657" result="effect2_foregroundBlur_2023_3"/>
</filter>
<filter id="filter4_bf_2023_3" x="-533.867" y="3188.78" width="2406.24" height="3833.85" filterUnits="userSpaceOnUse" color-interpolation-filters="sRGB">
<feFlood flood-opacity="0" result="BackgroundImageFix"/>
<feGaussianBlur in="BackgroundImageFix" stdDeviation="68.8657"/>
<feComposite in2="SourceAlpha" operator="in" result="effect1_backgroundBlur_2023_3"/>
<feBlend mode="normal" in="SourceGraphic" in2="effect1_backgroundBlur_2023_3" result="shape"/>
<feGaussianBlur stdDeviation="107" result="effect2_foregroundBlur_2023_3"/>
</filter>
<filter id="filter5_bf_2023_3" x="-608.951" y="4856.01" width="1450.44" height="2114.82" filterUnits="userSpaceOnUse" color-interpolation-filters="sRGB">
<feFlood flood-opacity="0" result="BackgroundImageFix"/>
<feGaussianBlur in="BackgroundImageFix" stdDeviation="68.8657"/>
<feComposite in2="SourceAlpha" operator="in" result="effect1_backgroundBlur_2023_3"/>
<feBlend mode="normal" in="SourceGraphic" in2="effect1_backgroundBlur_2023_3" result="shape"/>
<feGaussianBlur stdDeviation="107" result="effect2_foregroundBlur_2023_3"/>
</filter>
<filter id="filter6_bf_2023_3" x="-680.951" y="6605.01" width="1450.44" height="2114.82" filterUnits="userSpaceOnUse" color-interpolation-filters="sRGB">
<feFlood flood-opacity="0" result="BackgroundImageFix"/>
<feGaussianBlur in="BackgroundImageFix" stdDeviation="68.8657"/>
<feComposite in2="SourceAlpha" operator="in" result="effect1_backgroundBlur_2023_3"/>
<feBlend mode="normal" in="SourceGraphic" in2="effect1_backgroundBlur_2023_3" result="shape"/>
<feGaussianBlur stdDeviation="107" result="effect2_foregroundBlur_2023_3"/>
</filter>
<filter id="filter7_bf_2023_3" x="-735.951" y="7870.01" width="1450.44" height="2114.82" filterUnits="userSpaceOnUse" color-interpolation-filters="sRGB">
<feFlood flood-opacity="0" result="BackgroundImageFix"/>
<feGaussianBlur in="BackgroundImageFix" stdDeviation="68.8657"/>
<feComposite in2="SourceAlpha" operator="in" result="effect1_backgroundBlur_2023_3"/>
<feBlend mode="normal" in="SourceGraphic" in2="effect1_backgroundBlur_2023_3" result="shape"/>
<feGaussianBlur stdDeviation="107" result="effect2_foregroundBlur_2023_3"/>
</filter>
<filter id="filter8_bf_2023_3" x="-719.951" y="9342.01" width="1450.44" height="2114.82" filterUnits="userSpaceOnUse" color-interpolation-filters="sRGB">
<feFlood flood-opacity="0" result="BackgroundImageFix"/>
<feGaussianBlur in="BackgroundImageFix" stdDeviation="68.8657"/>
<feComposite in2="SourceAlpha" operator="in" result="effect1_backgroundBlur_2023_3"/>
<feBlend mode="normal" in="SourceGraphic" in2="effect1_backgroundBlur_2023_3" result="shape"/>
<feGaussianBlur stdDeviation="107" result="effect2_foregroundBlur_2023_3"/>
</filter>
<linearGradient id="paint0_linear_2023_3" x1="2070.79" y1="5057.24" x2="82.4928" y2="5227.36" gradientUnits="userSpaceOnUse">
<stop stop-color="white"/>
<stop offset="1" stop-color="white" stop-opacity="0"/>
</linearGradient>
<radialGradient id="paint1_radial_2023_3" cx="0" cy="0" r="1" gradientUnits="userSpaceOnUse" gradientTransform="translate(1357.93 8429.89) rotate(101.935) scale(3720.92 1275.21)">
<stop offset="0.0619708" stop-color="#EBFFEE"/>
<stop offset="1" stop-color="#BCFFC9"/>
</radialGradient>
<linearGradient id="paint2_linear_2023_3" x1="2070.79" y1="5057.24" x2="82.4928" y2="5227.36" gradientUnits="userSpaceOnUse">
<stop stop-color="white"/>
<stop offset="1" stop-color="white" stop-opacity="0"/>
</linearGradient>
<radialGradient id="paint3_radial_2023_3" cx="0" cy="0" r="1" gradientUnits="userSpaceOnUse" gradientTransform="translate(1357.93 8429.89) rotate(101.935) scale(3720.92 1275.21)">
<stop offset="0.0619708" stop-color="#EBFFEE"/>
<stop offset="1" stop-color="#BCFFC9"/>
</radialGradient>
<linearGradient id="paint4_linear_2023_3" x1="2070.79" y1="5057.24" x2="82.4928" y2="5227.36" gradientUnits="userSpaceOnUse">
<stop stop-color="white"/>
<stop offset="1" stop-color="white" stop-opacity="0"/>
</linearGradient>
<radialGradient id="paint5_radial_2023_3" cx="0" cy="0" r="1" gradientUnits="userSpaceOnUse" gradientTransform="translate(1357.93 8429.89) rotate(101.935) scale(3720.92 1275.21)">
<stop offset="0.0619708" stop-color="#EBFFEE"/>
<stop offset="1" stop-color="#BCFFC9"/>
</radialGradient>
<radialGradient id="paint6_radial_2023_3" cx="0" cy="0" r="1" gradientUnits="userSpaceOnUse" gradientTransform="translate(937.827 10648.1) rotate(96.0915) scale(3351.1 1127.07)">
<stop offset="0.1875" stop-color="white"/>
<stop offset="0.942708" stop-color="white"/>
</radialGradient>
<linearGradient id="paint7_linear_2023_3" x1="1742.21" y1="3942.5" x2="108.452" y2="3864.44" gradientUnits="userSpaceOnUse">
<stop stop-color="#F4F4F4"/>
<stop offset="0.0001" stop-opacity="0.864583"/>
<stop offset="1" stop-color="white" stop-opacity="0"/>
</linearGradient>
<radialGradient id="paint8_radial_2023_3" cx="0" cy="0" r="1" gradientUnits="userSpaceOnUse" gradientTransform="translate(1015.23 2021.91) rotate(-110.733) scale(2216.66 966.431)">
<stop offset="0.192708" stop-color="#ADF9BA"/>
<stop offset="0.53125" stop-color="white"/>
<stop offset="1" stop-color="#EFE5C3"/>
</radialGradient>
<linearGradient id="paint9_linear_2023_3" x1="-200.805" y1="364" x2="-200.806" y2="5558.71" gradientUnits="userSpaceOnUse">
<stop stop-color="#C4FFC9" stop-opacity="0.5"/>
<stop offset="1" stop-color="white" stop-opacity="0"/>
</linearGradient>
<linearGradient id="paint10_linear_2023_3" x1="-319.867" y1="3689.17" x2="986.277" y2="3339.19" gradientUnits="userSpaceOnUse">
<stop stop-color="#F4F4F4"/>
<stop offset="0.0001" stop-opacity="0.864583"/>
<stop offset="1" stop-color="white" stop-opacity="0"/>
</linearGradient>
<radialGradient id="paint11_radial_2023_3" cx="0" cy="0" r="1" gradientUnits="userSpaceOnUse" gradientTransform="translate(736.271 5018.44) rotate(51.532) scale(1832.58 633.901)">
<stop offset="0.192708" stop-color="#ADF9BA"/>
<stop offset="0.53125" stop-color="white"/>
<stop offset="1" stop-color="#EFE5C3"/>
</radialGradient>
<linearGradient id="paint12_linear_2023_3" x1="-394.951" y1="5175.89" x2="283.675" y2="4994.06" gradientUnits="userSpaceOnUse">
<stop stop-color="#F4F4F4"/>
<stop offset="0.0001" stop-opacity="0.864583"/>
<stop offset="1" stop-color="white" stop-opacity="0"/>
</linearGradient>
<radialGradient id="paint13_radial_2023_3" cx="0" cy="0" r="1" gradientUnits="userSpaceOnUse" gradientTransform="translate(153.78 5866.54) rotate(51.532) scale(952.143 307.366)">
<stop offset="0.192708" stop-color="#ADF9BA"/>
<stop offset="0.53125" stop-color="white"/>
<stop offset="1" stop-color="#EFE5C3"/>
</radialGradient>
<linearGradient id="paint14_linear_2023_3" x1="-466.951" y1="6924.89" x2="211.675" y2="6743.06" gradientUnits="userSpaceOnUse">
<stop stop-color="#F4F4F4"/>
<stop offset="0.0001" stop-opacity="0.864583"/>
<stop offset="1" stop-color="white" stop-opacity="0"/>
</linearGradient>
<radialGradient id="paint15_radial_2023_3" cx="0" cy="0" r="1" gradientUnits="userSpaceOnUse" gradientTransform="translate(81.7803 7615.54) rotate(51.532) scale(952.143 307.366)">
<stop offset="0.192708" stop-color="#ADF9BA"/>
<stop offset="0.53125" stop-color="white"/>
<stop offset="1" stop-color="#EFE5C3"/>
</radialGradient>
<linearGradient id="paint16_linear_2023_3" x1="-521.951" y1="8189.89" x2="156.675" y2="8008.06" gradientUnits="userSpaceOnUse">
<stop stop-color="#F4F4F4"/>
<stop offset="0.0001" stop-opacity="0.864583"/>
<stop offset="1" stop-color="white" stop-opacity="0"/>
</linearGradient>
<radialGradient id="paint17_radial_2023_3" cx="0" cy="0" r="1" gradientUnits="userSpaceOnUse" gradientTransform="translate(26.7803 8880.54) rotate(51.532) scale(952.143 307.366)">
<stop offset="0.192708" stop-color="#ADF9BA"/>
<stop offset="0.53125" stop-color="white"/>
<stop offset="1" stop-color="#EFE5C3"/>
</radialGradient>
<linearGradient id="paint18_linear_2023_3" x1="-505.951" y1="9661.89" x2="172.675" y2="9480.06" gradientUnits="userSpaceOnUse">
<stop stop-color="#F4F4F4"/>
<stop offset="0.0001" stop-opacity="0.864583"/>
<stop offset="1" stop-color="white" stop-opacity="0"/>
</linearGradient>
<radialGradient id="paint19_radial_2023_3" cx="0" cy="0" r="1" gradientUnits="userSpaceOnUse" gradientTransform="translate(42.7803 10352.5) rotate(51.532) scale(952.143 307.366)">
<stop offset="0.192708" stop-color="#ADF9BA"/>
<stop offset="0.53125" stop-color="white"/>
<stop offset="1" stop-color="#EFE5C3"/>
</radialGradient>
<clipPath id="clip0_2023_3">
<rect width="1440" height="10708" fill="white" transform="translate(2.00085)"/>
</clipPath>
</defs>
</svg>
