<svg width="77" height="14" viewBox="0 0 77 14" fill="none" xmlns="http://www.w3.org/2000/svg">
<path d="M7.5 0.282455L9.40019 4.37411L13.8788 4.9169L10.5746 7.98847L11.4423 12.4156L7.5 10.2223L3.55771 12.4156L4.42544 7.98847L1.12123 4.9169L5.59981 4.37411L7.5 0.282455Z" fill="#FFC633"/>
<path d="M24.7678 0.282455L26.668 4.37411L31.1466 4.9169L27.8424 7.98847L28.7101 12.4156L24.7678 10.2223L20.8255 12.4156L21.6933 7.98847L18.3891 4.9169L22.8676 4.37411L24.7678 0.282455Z" fill="#FFC633"/>
<path d="M42.0358 0.282425L43.936 4.37408L48.4145 4.91687L45.1103 7.98844L45.9781 12.4156L42.0358 10.2222L38.0935 12.4156L38.9612 7.98844L35.657 4.91687L40.1356 4.37408L42.0358 0.282425Z" fill="#FFC633"/>
<path d="M59.3035 0.282455L61.2037 4.37411L65.6822 4.9169L62.378 7.98847L63.2458 12.4156L59.3035 10.2223L55.3612 12.4156L56.2289 7.98847L52.9247 4.9169L57.4033 4.37411L59.3035 0.282455Z" fill="#FFC633"/>
<path d="M72.3007 12.4156L76.243 10.2223V0.282455L74.3428 4.37411L69.8643 4.9169L73.1685 7.98847L72.3007 12.4156Z" fill="#FFC633"/>
</svg>
